<svg xmlns="http://www.w3.org/2000/svg" xmlns:xlink="http://www.w3.org/1999/xlink" viewBox="0 0 2000 1000"><defs><style>.a,.b,.c,.d,.e,.f,.g,.h,.i,.j,.k,.l,.m,.n,.o,.p{fill:none;stroke-linecap:round;stroke-linejoin:round;stroke-width:40px;}.a{stroke:url(#a);}.b{stroke:url(#b);}.c{stroke:url(#c);}.d{stroke:url(#d);}.e{stroke:url(#e);}.f{stroke:url(#f);}.g{stroke:url(#g);}.h{stroke:url(#h);}.i{stroke:url(#i);}.j{stroke:url(#j);}.k{stroke:url(#k);}.l{stroke:url(#l);}.m{stroke:url(#m);}.n{stroke:url(#n);}.o{stroke:url(#o);}.p{stroke:url(#p);}.q{fill:#fcd34d;}</style><linearGradient id="a" x1="280.84" y1="10.51" x2="280.84" y2="272.42" gradientTransform="matrix(0.83, -0.56, 0.56, 0.83, -119.18, 223.95)" gradientUnits="userSpaceOnUse"><stop offset="0" stop-color="#fbb03b"/><stop offset="0.08" stop-color="#fca74d"/><stop offset="0.25" stop-color="#fd976f"/><stop offset="0.43" stop-color="#fe8b8a"/><stop offset="0.62" stop-color="#fe829d"/><stop offset="0.8" stop-color="#ff7da8"/><stop offset="1" stop-color="#ff7bac"/></linearGradient><linearGradient id="b" x1="358.65" y1="3.6" x2="358.65" y2="186.35" xlink:href="#a"/><linearGradient id="c" x1="280.84" y1="10.51" x2="280.84" y2="272.42" gradientTransform="matrix(0.98, 0.19, -0.19, 0.98, 64.51, -53.14)" xlink:href="#a"/><linearGradient id="d" x1="358.65" y1="3.6" x2="358.65" y2="186.35" gradientTransform="matrix(0.98, 0.19, -0.19, 0.98, 64.51, -53.14)" xlink:href="#a"/><linearGradient id="e" x1="280.84" y1="10.51" x2="280.84" y2="272.42" gradientTransform="matrix(0.56, 0.83, -0.83, 0.56, 390.33, -119.18)" xlink:href="#a"/><linearGradient id="f" x1="358.65" y1="3.6" x2="358.65" y2="186.35" gradientTransform="matrix(0.56, 0.83, -0.83, 0.56, 390.33, -119.18)" xlink:href="#a"/><linearGradient id="g" x1="280.84" y1="10.51" x2="280.84" y2="272.42" gradientTransform="matrix(-0.19, 0.98, -0.98, -0.19, 667.42, 64.51)" xlink:href="#a"/><linearGradient id="h" x1="358.65" y1="3.6" x2="358.65" y2="186.35" gradientTransform="matrix(-0.19, 0.98, -0.98, -0.19, 667.42, 64.51)" xlink:href="#a"/><linearGradient id="i" x1="280.84" y1="10.51" x2="280.84" y2="272.42" gradientTransform="matrix(-0.83, 0.56, -0.56, -0.83, 733.46, 390.33)" xlink:href="#a"/><linearGradient id="j" x1="358.65" y1="3.6" x2="358.65" y2="186.35" gradientTransform="matrix(-0.83, 0.56, -0.56, -0.83, 733.46, 390.33)" xlink:href="#a"/><linearGradient id="k" x1="280.84" y1="10.51" x2="280.84" y2="272.42" gradientTransform="matrix(-0.98, -0.19, 0.19, -0.98, 549.77, 667.42)" xlink:href="#a"/><linearGradient id="l" x1="358.65" y1="3.6" x2="358.65" y2="186.35" gradientTransform="matrix(-0.98, -0.19, 0.19, -0.98, 549.77, 667.42)" xlink:href="#a"/><linearGradient id="m" x1="280.84" y1="10.51" x2="280.84" y2="272.42" gradientTransform="matrix(-0.56, -0.83, 0.83, -0.56, 223.95, 733.46)" xlink:href="#a"/><linearGradient id="n" x1="358.65" y1="3.6" x2="358.65" y2="186.35" gradientTransform="matrix(-0.56, -0.83, 0.83, -0.56, 223.95, 733.46)" xlink:href="#a"/><linearGradient id="o" x1="280.84" y1="10.51" x2="280.84" y2="272.42" gradientTransform="matrix(0.19, -0.98, 0.98, 0.19, -53.14, 549.77)" xlink:href="#a"/><linearGradient id="p" x1="358.65" y1="3.6" x2="358.65" y2="186.35" gradientTransform="matrix(0.19, -0.98, 0.98, 0.19, -53.14, 549.77)" xlink:href="#a"/><symbol id="q" viewBox="0 0 614.28 614.28"><path class="a" d="M149.86,79.55c17.63,66.35,60.81,64.68,86.75,105.16a607.66,607.66,0,0,1,41.46,76c-16.87-28.47-62.06-32.5-98.88-54.36C150.73,189.49,122.66,145,122.66,145"/><path class="b" d="M225.91,20C205.36,97.11,207,140.5,236.8,184.77"/><path class="c" d="M356.86,35c-34.45,59.39-2.74,88.74-13,135.71a608.41,608.41,0,0,1-24.45,83.08c8.2-32.06-20.9-66.86-31.48-108.36-8.18-32.07,3.42-83.36,3.42-83.36"/><path class="d" d="M452.74,46.66c-69.05,40-98.58,71.83-108.81,124.21"/><path class="e" d="M534.73,149.86c-66.35,17.63-64.68,60.81-105.16,86.75a607.66,607.66,0,0,1-76,41.46C382,261.2,386,216,407.89,179.19c16.9-28.46,61.37-56.53,61.37-56.53"/><path class="f" d="M594.28,225.91C517.17,205.36,473.78,207,429.51,236.8"/><path class="g" d="M579.29,356.86c-59.39-34.45-88.74-2.74-135.71-13a608.41,608.41,0,0,1-83.08-24.45c32.05,8.2,66.86-20.9,108.36-31.48,32.07-8.18,83.36,3.42,83.36,3.42"/><path class="h" d="M567.62,452.74c-40-69.05-71.83-98.58-124.21-108.81"/><path class="i" d="M464.42,534.73c-17.63-66.35-60.81-64.68-86.75-105.16a607.66,607.66,0,0,1-41.46-76c16.87,28.46,62.06,32.5,98.88,54.36,28.46,16.9,56.53,61.37,56.53,61.37"/><path class="j" d="M388.37,594.28c20.55-77.11,18.92-120.5-10.89-164.77"/><path class="k" d="M257.42,579.29c34.45-59.39,2.74-88.74,13-135.71a608.41,608.41,0,0,1,24.45-83.08c-8.2,32.05,20.9,66.86,31.48,108.36,8.18,32.07-3.42,83.36-3.42,83.36"/><path class="l" d="M161.54,567.62c69.05-40,98.58-71.83,108.81-124.21"/><path class="m" d="M79.55,464.42c66.35-17.63,64.68-60.81,105.16-86.75a607.66,607.66,0,0,1,76-41.46c-28.47,16.87-32.5,62.06-54.36,98.88C189.49,463.55,145,491.62,145,491.62"/><path class="n" d="M20,388.37c77.11,20.55,120.5,18.92,164.77-10.89"/><path class="o" d="M35,257.42c59.39,34.45,88.74,2.74,135.71,13a608.41,608.41,0,0,1,83.08,24.45c-32.06-8.2-66.86,20.9-108.36,31.48C113.35,334.55,62.06,323,62.06,323"/><path class="p" d="M46.66,161.54c40,69.05,71.83,98.58,124.21,108.81"/></symbol></defs><rect class="q" width="2000" height="1000"/><use width="614.28" height="614.28" transform="translate(135.84 192.86)" xlink:href="#q"/><path d="M1129.25,583a14.22,14.22,0,0,1,.87,3.91,10.8,10.8,0,0,1-3,7.61,10.22,10.22,0,0,1-7.82,3.26H1099.7a9.81,9.81,0,0,1-6.08-2,12.08,12.08,0,0,1-3.91-5l-33-76.47-20.42.87h-63l-20.86-1.31-33,76.91a9,9,0,0,1-3.69,5,10.81,10.81,0,0,1-6.3,2H889.85A11.14,11.14,0,0,1,879,586.89a13.5,13.5,0,0,1,.87-3.91l26.5-71.25L935,438.3l54.75-137.73a11.47,11.47,0,0,1,4.13-5,10.1,10.1,0,0,1,5.86-2h9.13a10.14,10.14,0,0,1,5.86,2,11.54,11.54,0,0,1,4.13,5l55.18,137.73,28.67,73.43ZM1027.14,438.3l-22.59-61.69L982,438.3l-13.91,35.2h73Z"/><path d="M1167.47,580.38a7.89,7.89,0,0,1-2.61-5.65,7.07,7.07,0,0,1,1.31-4.35l61.69-79.5-61.69-79.51a8.4,8.4,0,0,1-1.31-4.35q0-3.91,2.61-5.65L1187,385.73a5.92,5.92,0,0,1,4.34-1.74,7,7,0,0,1,5.65,2.61L1254.8,457l58.65-70.39a7,7,0,0,1,5.65-2.61,5.94,5.94,0,0,1,4.35,1.74L1343,401.37a7.89,7.89,0,0,1,2.6,5.65,8.39,8.39,0,0,1-1.3,4.35l-62.13,79.51,62.13,79.94a6.34,6.34,0,0,1,1.3,3.91,7,7,0,0,1-2.6,5.65L1323.45,596a5.9,5.9,0,0,1-4.35,1.74,7,7,0,0,1-5.65-2.61l-58.65-70.39L1197,595.15q-1.74,2.61-5.65,2.61A5.88,5.88,0,0,1,1187,596Z"/><path d="M1536.77,397.68a107.79,107.79,0,0,1,39.1,39.1,104.52,104.52,0,0,1,14.34,53.66,106.93,106.93,0,0,1-107.32,107.32,104.46,104.46,0,0,1-53.65-14.34,107.33,107.33,0,0,1-53.23-93,104.52,104.52,0,0,1,14.34-53.66,108.29,108.29,0,0,1,38.89-39.1,103.31,103.31,0,0,1,53.65-14.56A104.49,104.49,0,0,1,1536.77,397.68Zm-86,37.15a65.06,65.06,0,0,0-23.46,23.46,62.24,62.24,0,0,0-8.69,32.15,63.36,63.36,0,0,0,8.69,32.37,64.51,64.51,0,0,0,23.46,23.68,62.24,62.24,0,0,0,32.15,8.69,63.36,63.36,0,0,0,32.37-8.69,64.78,64.78,0,0,0,32.37-56.05,62.33,62.33,0,0,0-8.69-32.15,64.59,64.59,0,0,0-23.68-23.46,63.46,63.46,0,0,0-32.37-8.69A62.33,62.33,0,0,0,1450.74,434.83Z"/><path d="M1814.4,589.94a7.84,7.84,0,0,1-2.18,5.43,6.82,6.82,0,0,1-5.21,2.39h-24.33a8.19,8.19,0,0,1-7.82-7.82l-1.74-115.58q0-23.88-14.34-37.36a47.84,47.84,0,0,0-33.89-13.47,48.59,48.59,0,0,0-34.1,13.47q-14.57,13.47-14.56,37.36l-1.3,115.58a7.88,7.88,0,0,1-2.17,5.43,7.32,7.32,0,0,1-5.65,2.39h-24.33a8.19,8.19,0,0,1-7.82-7.82l-1.31-120.35.44-74.73a7.26,7.26,0,0,1,2.39-5.65,7.84,7.84,0,0,1,5.43-2.18H1668a7.12,7.12,0,0,1,5.21,2.18,9,9,0,0,1,2.61,5.21v11.3q16.5-22.59,49.09-22.6,29.55,0,50.19,12.82a81.15,81.15,0,0,1,30.84,33.67,100.42,100.42,0,0,1,10.21,44.75Z"/></svg>