<svg xmlns="http://www.w3.org/2000/svg" xmlns:xlink="http://www.w3.org/1999/xlink" viewBox="0 0 614.28 614.28"><defs><style>.a,.b,.c,.d,.e,.f,.g,.h,.i,.j,.k,.l,.m,.n,.o,.p{fill:none;stroke-linecap:round;stroke-linejoin:round;stroke-width:40px;}.a{stroke:url(#a);}.b{stroke:url(#b);}.c{stroke:url(#c);}.d{stroke:url(#d);}.e{stroke:url(#e);}.f{stroke:url(#f);}.g{stroke:url(#g);}.h{stroke:url(#h);}.i{stroke:url(#i);}.j{stroke:url(#j);}.k{stroke:url(#k);}.l{stroke:url(#l);}.m{stroke:url(#m);}.n{stroke:url(#n);}.o{stroke:url(#o);}.p{stroke:url(#p);}</style><linearGradient id="a" x1="280.84" y1="10.51" x2="280.84" y2="272.42" gradientTransform="matrix(0.83, -0.56, 0.56, 0.83, -119.18, 223.95)" gradientUnits="userSpaceOnUse"><stop offset="0" stop-color="#fbb03b"/><stop offset="0.08" stop-color="#fca74d"/><stop offset="0.25" stop-color="#fd976f"/><stop offset="0.43" stop-color="#fe8b8a"/><stop offset="0.62" stop-color="#fe829d"/><stop offset="0.8" stop-color="#ff7da8"/><stop offset="1" stop-color="#ff7bac"/></linearGradient><linearGradient id="b" x1="358.65" y1="3.6" x2="358.65" y2="186.35" xlink:href="#a"/><linearGradient id="c" x1="280.84" y1="10.51" x2="280.84" y2="272.42" gradientTransform="matrix(0.98, 0.19, -0.19, 0.98, 64.51, -53.14)" xlink:href="#a"/><linearGradient id="d" x1="358.65" y1="3.6" x2="358.65" y2="186.35" gradientTransform="matrix(0.98, 0.19, -0.19, 0.98, 64.51, -53.14)" xlink:href="#a"/><linearGradient id="e" x1="280.84" y1="10.51" x2="280.84" y2="272.42" gradientTransform="matrix(0.56, 0.83, -0.83, 0.56, 390.33, -119.18)" xlink:href="#a"/><linearGradient id="f" x1="358.65" y1="3.6" x2="358.65" y2="186.35" gradientTransform="matrix(0.56, 0.83, -0.83, 0.56, 390.33, -119.18)" xlink:href="#a"/><linearGradient id="g" x1="280.84" y1="10.51" x2="280.84" y2="272.42" gradientTransform="matrix(-0.19, 0.98, -0.98, -0.19, 667.42, 64.51)" xlink:href="#a"/><linearGradient id="h" x1="358.65" y1="3.6" x2="358.65" y2="186.35" gradientTransform="matrix(-0.19, 0.98, -0.98, -0.19, 667.42, 64.51)" xlink:href="#a"/><linearGradient id="i" x1="280.84" y1="10.51" x2="280.84" y2="272.42" gradientTransform="matrix(-0.83, 0.56, -0.56, -0.83, 733.46, 390.33)" xlink:href="#a"/><linearGradient id="j" x1="358.65" y1="3.6" x2="358.65" y2="186.35" gradientTransform="matrix(-0.83, 0.56, -0.56, -0.83, 733.46, 390.33)" xlink:href="#a"/><linearGradient id="k" x1="280.84" y1="10.51" x2="280.84" y2="272.42" gradientTransform="matrix(-0.98, -0.19, 0.19, -0.98, 549.77, 667.42)" xlink:href="#a"/><linearGradient id="l" x1="358.65" y1="3.6" x2="358.65" y2="186.35" gradientTransform="matrix(-0.98, -0.19, 0.19, -0.98, 549.77, 667.42)" xlink:href="#a"/><linearGradient id="m" x1="280.84" y1="10.51" x2="280.84" y2="272.42" gradientTransform="matrix(-0.56, -0.83, 0.83, -0.56, 223.95, 733.46)" xlink:href="#a"/><linearGradient id="n" x1="358.65" y1="3.6" x2="358.65" y2="186.35" gradientTransform="matrix(-0.56, -0.83, 0.83, -0.56, 223.95, 733.46)" xlink:href="#a"/><linearGradient id="o" x1="280.84" y1="10.51" x2="280.84" y2="272.42" gradientTransform="matrix(0.19, -0.98, 0.98, 0.19, -53.14, 549.77)" xlink:href="#a"/><linearGradient id="p" x1="358.65" y1="3.6" x2="358.65" y2="186.35" gradientTransform="matrix(0.19, -0.98, 0.98, 0.19, -53.14, 549.77)" xlink:href="#a"/><symbol id="q" viewBox="0 0 614.28 614.28"><path class="a" d="M149.86,79.55c17.63,66.35,60.81,64.68,86.75,105.16a607.66,607.66,0,0,1,41.46,76c-16.87-28.47-62.06-32.5-98.88-54.36C150.73,189.49,122.66,145,122.66,145"/><path class="b" d="M225.91,20C205.36,97.11,207,140.5,236.8,184.77"/><path class="c" d="M356.86,35c-34.45,59.39-2.74,88.74-13,135.71a608.41,608.41,0,0,1-24.45,83.08c8.2-32.06-20.9-66.86-31.48-108.36-8.18-32.07,3.42-83.36,3.42-83.36"/><path class="d" d="M452.74,46.66c-69.05,40-98.58,71.83-108.81,124.21"/><path class="e" d="M534.73,149.86c-66.35,17.63-64.68,60.81-105.16,86.75a607.66,607.66,0,0,1-76,41.46C382,261.2,386,216,407.89,179.19c16.9-28.46,61.37-56.53,61.37-56.53"/><path class="f" d="M594.28,225.91C517.17,205.36,473.78,207,429.51,236.8"/><path class="g" d="M579.29,356.86c-59.39-34.45-88.74-2.74-135.71-13a608.41,608.41,0,0,1-83.08-24.45c32.05,8.2,66.86-20.9,108.36-31.48,32.07-8.18,83.36,3.42,83.36,3.42"/><path class="h" d="M567.62,452.74c-40-69.05-71.83-98.58-124.21-108.81"/><path class="i" d="M464.42,534.73c-17.63-66.35-60.81-64.68-86.75-105.16a607.66,607.66,0,0,1-41.46-76c16.87,28.46,62.06,32.5,98.88,54.36,28.46,16.9,56.53,61.37,56.53,61.37"/><path class="j" d="M388.37,594.28c20.55-77.11,18.92-120.5-10.89-164.77"/><path class="k" d="M257.42,579.29c34.45-59.39,2.74-88.74,13-135.71a608.41,608.41,0,0,1,24.45-83.08c-8.2,32.05,20.9,66.86,31.48,108.36,8.18,32.07-3.42,83.36-3.42,83.36"/><path class="l" d="M161.54,567.62c69.05-40,98.58-71.83,108.81-124.21"/><path class="m" d="M79.55,464.42c66.35-17.63,64.68-60.81,105.16-86.75a607.66,607.66,0,0,1,76-41.46c-28.47,16.87-32.5,62.06-54.36,98.88C189.49,463.55,145,491.62,145,491.62"/><path class="n" d="M20,388.37c77.11,20.55,120.5,18.92,164.77-10.89"/><path class="o" d="M35,257.42c59.39,34.45,88.74,2.74,135.71,13a608.41,608.41,0,0,1,83.08,24.45c-32.06-8.2-66.86,20.9-108.36,31.48C113.35,334.55,62.06,323,62.06,323"/><path class="p" d="M46.66,161.54c40,69.05,71.83,98.58,124.21,108.81"/></symbol></defs><use width="614.28" height="614.28" xlink:href="#q"/></svg>