<svg xmlns="http://www.w3.org/2000/svg" xmlns:xlink="http://www.w3.org/1999/xlink" viewBox="0 0 2000 1000"><defs><style>.a,.b,.c,.d,.e,.f,.g,.h,.i,.j,.k,.l,.m,.n,.o,.p{fill:none;stroke-linecap:round;stroke-linejoin:round;stroke-width:40px;}.a{stroke:url(#a);}.b{stroke:url(#b);}.c{stroke:url(#c);}.d{stroke:url(#d);}.e{stroke:url(#e);}.f{stroke:url(#f);}.g{stroke:url(#g);}.h{stroke:url(#h);}.i{stroke:url(#i);}.j{stroke:url(#j);}.k{stroke:url(#k);}.l{stroke:url(#l);}.m{stroke:url(#m);}.n{stroke:url(#n);}.o{stroke:url(#o);}.p{stroke:url(#p);}.q{fill:#fcd34d;}</style><linearGradient id="a" x1="280.84" y1="10.51" x2="280.84" y2="272.42" gradientTransform="matrix(0.83, -0.56, 0.56, 0.83, -119.18, 223.95)" gradientUnits="userSpaceOnUse"><stop offset="0" stop-color="#fbb03b"/><stop offset="0.08" stop-color="#fca74d"/><stop offset="0.25" stop-color="#fd976f"/><stop offset="0.43" stop-color="#fe8b8a"/><stop offset="0.62" stop-color="#fe829d"/><stop offset="0.8" stop-color="#ff7da8"/><stop offset="1" stop-color="#ff7bac"/></linearGradient><linearGradient id="b" x1="358.65" y1="3.6" x2="358.65" y2="186.35" xlink:href="#a"/><linearGradient id="c" x1="280.84" y1="10.51" x2="280.84" y2="272.42" gradientTransform="matrix(0.98, 0.19, -0.19, 0.98, 64.51, -53.14)" xlink:href="#a"/><linearGradient id="d" x1="358.65" y1="3.6" x2="358.65" y2="186.35" gradientTransform="matrix(0.98, 0.19, -0.19, 0.98, 64.51, -53.14)" xlink:href="#a"/><linearGradient id="e" x1="280.84" y1="10.51" x2="280.84" y2="272.42" gradientTransform="matrix(0.56, 0.83, -0.83, 0.56, 390.33, -119.18)" xlink:href="#a"/><linearGradient id="f" x1="358.65" y1="3.6" x2="358.65" y2="186.35" gradientTransform="matrix(0.56, 0.83, -0.83, 0.56, 390.33, -119.18)" xlink:href="#a"/><linearGradient id="g" x1="280.84" y1="10.51" x2="280.84" y2="272.42" gradientTransform="matrix(-0.19, 0.98, -0.98, -0.19, 667.42, 64.51)" xlink:href="#a"/><linearGradient id="h" x1="358.65" y1="3.6" x2="358.65" y2="186.35" gradientTransform="matrix(-0.19, 0.98, -0.98, -0.19, 667.42, 64.51)" xlink:href="#a"/><linearGradient id="i" x1="280.84" y1="10.51" x2="280.84" y2="272.42" gradientTransform="matrix(-0.83, 0.56, -0.56, -0.83, 733.46, 390.33)" xlink:href="#a"/><linearGradient id="j" x1="358.65" y1="3.6" x2="358.65" y2="186.35" gradientTransform="matrix(-0.83, 0.56, -0.56, -0.83, 733.46, 390.33)" xlink:href="#a"/><linearGradient id="k" x1="280.84" y1="10.51" x2="280.84" y2="272.42" gradientTransform="matrix(-0.98, -0.19, 0.19, -0.98, 549.77, 667.42)" xlink:href="#a"/><linearGradient id="l" x1="358.65" y1="3.6" x2="358.65" y2="186.35" gradientTransform="matrix(-0.98, -0.19, 0.19, -0.98, 549.77, 667.42)" xlink:href="#a"/><linearGradient id="m" x1="280.84" y1="10.51" x2="280.84" y2="272.42" gradientTransform="matrix(-0.56, -0.83, 0.83, -0.56, 223.95, 733.46)" xlink:href="#a"/><linearGradient id="n" x1="358.65" y1="3.6" x2="358.65" y2="186.35" gradientTransform="matrix(-0.56, -0.83, 0.83, -0.56, 223.95, 733.46)" xlink:href="#a"/><linearGradient id="o" x1="280.84" y1="10.51" x2="280.84" y2="272.42" gradientTransform="matrix(0.19, -0.98, 0.98, 0.19, -53.14, 549.77)" xlink:href="#a"/><linearGradient id="p" x1="358.65" y1="3.6" x2="358.65" y2="186.35" gradientTransform="matrix(0.19, -0.98, 0.98, 0.19, -53.14, 549.77)" xlink:href="#a"/><symbol id="q" viewBox="0 0 614.28 614.28"><path class="a" d="M149.86,79.55c17.63,66.35,60.81,64.68,86.75,105.16a607.66,607.66,0,0,1,41.46,76c-16.87-28.47-62.06-32.5-98.88-54.36C150.73,189.49,122.66,145,122.66,145"/><path class="b" d="M225.91,20C205.36,97.11,207,140.5,236.8,184.77"/><path class="c" d="M356.86,35c-34.45,59.39-2.74,88.74-13,135.71a608.41,608.41,0,0,1-24.45,83.08c8.2-32.06-20.9-66.86-31.48-108.36-8.18-32.07,3.42-83.36,3.42-83.36"/><path class="d" d="M452.74,46.66c-69.05,40-98.58,71.83-108.81,124.21"/><path class="e" d="M534.73,149.86c-66.35,17.63-64.68,60.81-105.16,86.75a607.66,607.66,0,0,1-76,41.46C382,261.2,386,216,407.89,179.19c16.9-28.46,61.37-56.53,61.37-56.53"/><path class="f" d="M594.28,225.91C517.17,205.36,473.78,207,429.51,236.8"/><path class="g" d="M579.29,356.86c-59.39-34.45-88.74-2.74-135.71-13a608.41,608.41,0,0,1-83.08-24.45c32.05,8.2,66.86-20.9,108.36-31.48,32.07-8.18,83.36,3.42,83.36,3.42"/><path class="h" d="M567.62,452.74c-40-69.05-71.83-98.58-124.21-108.81"/><path class="i" d="M464.42,534.73c-17.63-66.35-60.81-64.68-86.75-105.16a607.66,607.66,0,0,1-41.46-76c16.87,28.46,62.06,32.5,98.88,54.36,28.46,16.9,56.53,61.37,56.53,61.37"/><path class="j" d="M388.37,594.28c20.55-77.11,18.92-120.5-10.89-164.77"/><path class="k" d="M257.42,579.29c34.45-59.39,2.74-88.74,13-135.71a608.41,608.41,0,0,1,24.45-83.08c-8.2,32.05,20.9,66.86,31.48,108.36,8.18,32.07-3.42,83.36-3.42,83.36"/><path class="l" d="M161.54,567.62c69.05-40,98.58-71.83,108.81-124.21"/><path class="m" d="M79.55,464.42c66.35-17.63,64.68-60.81,105.16-86.75a607.66,607.66,0,0,1,76-41.46c-28.47,16.87-32.5,62.06-54.36,98.88C189.49,463.55,145,491.62,145,491.62"/><path class="n" d="M20,388.37c77.11,20.55,120.5,18.92,164.77-10.89"/><path class="o" d="M35,257.42c59.39,34.45,88.74,2.74,135.71,13a608.41,608.41,0,0,1,83.08,24.45c-32.06-8.2-66.86,20.9-108.36,31.48C113.35,334.55,62.06,323,62.06,323"/><path class="p" d="M46.66,161.54c40,69.05,71.83,98.58,124.21,108.81"/></symbol></defs><rect class="q" width="2000" height="1000"/><use width="614.28" height="614.28" transform="translate(135.84 203.88)" xlink:href="#q"/><path d="M855.89,599.23,900,592.71h8.21l44.45,6.52v20.41H855.89ZM982.33,330H1018l98.81,289.6h-57.63L978.52,373.1l13.18-11.16-85.76,257.7H882.81ZM933.57,508h117.31l8.39,22.7H926.46Zm79.22,91.7,51.87-6.52h19l54.84,6.52v19.93H1012.79Z"/><path d="M1197,595.29l35.73,6.59v17.76h-84.78V601.88l37.21-6.59Zm-1.46-158.65-45.34-7.07V411.62h109v17.95l-41.59,7.07Zm-36.24,183,92-119.91,16.37,10L1189,619.64Zm62.32-208,56.16,84.54,81.75,123.48H1299l-58.88-89.19-77.13-118.83Zm137.54,0-89.41,114.87-15-11.29,74.31-103.58ZM1325,593.19l48.11,8.69v17.76H1258.37V601.88l52.57-8.69Zm-4.64-157-32.55-6.63V411.62h78.65v17.95l-34.42,6.63Z"/><path d="M1384.8,515.62c0-69.41,48.62-110.12,104.8-110.12,55.64,0,104.81,40.23,104.81,110.12S1548,625.77,1489.6,625.77C1430.55,625.77,1384.8,585,1384.8,515.62Zm153,.48c0-60-17.21-89.46-48.16-89.46-31.49,0-48.15,29.49-48.15,89.46,0,60.14,16.66,88.52,48.15,88.52C1520.55,604.62,1537.76,576.24,1537.76,516.1Z"/><path d="M1653,619.64c.87-19.55,1.31-64.3,1.31-91.24V505.59c0-23.9-.44-35.13-1.31-52.51l-30.61-3.91V433L1695,405.5l7,4.5,4.58,49.29V528.4c0,26.94.43,71.69,1.3,91.24Zm79.9-17.76v17.76H1625.59V601.88l44-8.69h21.13ZM1838,483V528.4c0,27.81.44,71.69,1.3,91.24h-54.9c.87-19.55,1.3-63.43,1.3-91.24V487.28c0-34-8.67-45.47-30.28-45.47-18.53,0-37.94,10.13-58.88,30.94h-12V448.89h25.83l-17.57,10.05c25.52-35.82,55.18-53.44,86.19-53.44C1816.52,405.5,1838,429.32,1838,483Zm-16,110.18,43,8.69v17.76H1757.51V601.88l43.49-8.69Z"/></svg>