<svg xmlns="http://www.w3.org/2000/svg" viewBox="0 0 274.91 260.87"><defs><style>.a{fill:#b9e4ef;}.b{fill:#93d8e4;}.c{fill:#daf1f4;}.d,.e{fill:none;stroke-linecap:round;stroke-linejoin:round;stroke-width:12px;}.d{stroke:#231f20;}.e{stroke:#000;}</style></defs><polygon class="a" points="181.19 208.6 181.19 107.3 93.46 56.65 93.46 157.95 181.19 208.6"/><polygon class="b" points="181.19 208.6 181.19 107.3 268.91 56.65 268.91 157.95 181.19 208.6"/><polygon class="c" points="268.91 56.65 181.19 107.3 93.46 56.65 181.19 6 268.91 56.65"/><polygon class="d" points="268.91 56.65 181.19 6 93.46 56.65 93.46 157.95 181.19 208.6 268.91 157.95 268.91 56.65"/><line class="e" x1="181.19" y1="107.3" x2="236.27" y2="75.5"/><line class="e" x1="181.19" y1="187.46" x2="181.19" y2="162.46"/><line class="e" x1="181.19" y1="132.3" x2="181.19" y2="107.3"/><line class="e" x1="181.19" y1="107.3" x2="123.43" y2="73.95"/><line class="e" x1="136.29" y1="51.91" x2="168.32" y2="33.42"/><polygon class="a" points="71.8 254.87 71.8 178.9 6 140.91 6 216.88 71.8 254.87"/><polygon class="b" points="71.8 254.87 71.8 178.9 137.59 140.91 137.59 216.88 71.8 254.87"/><polygon class="c" points="137.59 140.91 71.8 178.9 6 140.91 71.8 102.92 137.59 140.91"/><polygon class="d" points="137.59 140.91 71.8 102.92 6 140.91 6 216.88 71.8 254.87 137.59 216.88 137.59 140.91"/><line class="e" x1="71.8" y1="178.9" x2="113.11" y2="155.05"/><line class="e" x1="71.8" y1="228.96" x2="71.8" y2="178.9"/><line class="e" x1="71.8" y1="178.9" x2="28.48" y2="153.88"/><line class="e" x1="95.82" y1="137.37" x2="71.8" y2="123.5"/></svg>